<svg xmlns="http://www.w3.org/2000/svg" version="1.1" xmlns:xlink="http://www.w3.org/1999/xlink" width="512" height="512" x="0" y="0" viewBox="0 0 502.686 502.686" style="enable-background:new 0 0 512 512" xml:space="preserve" class=""><g><path d="M466.447 96.788c-20.082 0-36.347 17.71-36.347 39.496 0 14.172 6.86 26.51 17.192 33.521-21.83 32.766-52.633 70.817-84.385 81.84-41.783 14.517-80.739-74.7-99.916-127.721 14.215-5.35 24.569-19.953 24.569-37.274 0-21.786-16.243-39.475-36.26-39.475-19.975 0-36.239 17.688-36.239 39.475 0 17.321 10.332 31.903 24.569 37.274-19.133 53.021-58.047 142.238-99.894 127.721-31.709-11.023-62.577-49.074-84.363-81.84 10.289-7.01 17.17-19.327 17.17-33.521 0-21.786-16.286-39.496-36.304-39.496C16.264 96.788 0 114.498 0 136.284c0 21.851 16.264 39.539 36.239 39.539.41 0 .69-.108 1.079-.151l48.966 227.464h330.098l48.987-227.464c.345.022.69.151 1.1.151 19.953 0 36.217-17.688 36.217-39.539-.022-21.786-16.286-39.496-36.239-39.496zM87.944 411.139h326.754v44.371H87.944z" style="" fill="#010002" data-original="#010002" class=""></path></g></svg>